<?xml version="1.0" encoding="UTF-8" standalone="no"?>
<!-- Created with Inkscape (http://www.inkscape.org/) -->

<svg
   xmlns:dc="http://purl.org/dc/elements/1.1/"
   xmlns:cc="http://creativecommons.org/ns#"
   xmlns:rdf="http://www.w3.org/1999/02/22-rdf-syntax-ns#"
   xmlns:svg="http://www.w3.org/2000/svg"
   xmlns="http://www.w3.org/2000/svg"
   xmlns:sodipodi="http://sodipodi.sourceforge.net/DTD/sodipodi-0.dtd"
   xmlns:inkscape="http://www.inkscape.org/namespaces/inkscape"
   width="2048"
   height="2048"
   id="svg2"
   version="1.1"
   inkscape:version="0.48.4 r9939"
   sodipodi:docname="Fotografia Originuum - Lototipo - Símbolo Logotipo - 1.0.0.svg"
   inkscape:export-filename="./Fotografia Originuum - Símbolo Logotipo - 1.0.0 - 2048x2048.png"
   inkscape:export-xdpi="90"
   inkscape:export-ydpi="90">
  <sodipodi:namedview
     id="base"
     pagecolor="#ffffff"
     bordercolor="#666666"
     borderopacity="1.0"
     inkscape:pageopacity="0.0"
     inkscape:pageshadow="2"
     inkscape:zoom="0.1767767"
     inkscape:cx="240.02063"
     inkscape:cy="1124.3656"
     inkscape:document-units="px"
     inkscape:current-layer="layer1"
     showgrid="false"
     inkscape:snap-bbox="true"
     inkscape:bbox-paths="true"
     inkscape:bbox-nodes="true"
     inkscape:snap-bbox-edge-midpoints="true"
     inkscape:snap-bbox-midpoints="true"
     inkscape:object-paths="true"
     inkscape:snap-intersection-paths="true"
     inkscape:object-nodes="true"
     inkscape:snap-smooth-nodes="true"
     inkscape:snap-midpoints="true"
     inkscape:snap-object-midpoints="true"
     inkscape:snap-center="true"
     inkscape:snap-global="true"
     showguides="true"
     inkscape:guide-bbox="true"
     inkscape:window-width="1323"
     inkscape:window-height="744"
     inkscape:window-x="43"
     inkscape:window-y="24"
     inkscape:window-maximized="1"
     fit-margin-top="0"
     fit-margin-left="0"
     fit-margin-right="0"
     fit-margin-bottom="0">
    <sodipodi:guide
       id="guide3862"
       position="0.0,0"
       orientation="2048.0,0" />
    <sodipodi:guide
       id="guide3864"
       position="1024.0,0"
       orientation="2048.0,0" />
    <sodipodi:guide
       id="guide3866"
       position="2048.0,0"
       orientation="2048.0,0" />
    <sodipodi:guide
       id="guide3868"
       position="0,0.0"
       orientation="0,2048.0" />
    <sodipodi:guide
       id="guide3870"
       position="0,1024.0"
       orientation="0,2048.0" />
    <sodipodi:guide
       id="guide3872"
       position="0,2048.0"
       orientation="0,2048.0" />
  </sodipodi:namedview>
  <defs
     id="defs4" />
  <metadata
     id="metadata7">
    <rdf:RDF>
      <cc:Work
         rdf:about="">
        <dc:format>image/svg+xml</dc:format>
        <dc:type
           rdf:resource="http://purl.org/dc/dcmitype/StillImage" />
        <dc:title></dc:title>
      </cc:Work>
    </rdf:RDF>
  </metadata>
  <g
     transform="translate(-256.4375,1567.0625)"
     id="layer1"
     inkscape:groupmode="layer"
     inkscape:label="Camada 1">
    <g
       id="g3897"
       transform="translate(0,69.535705)">
      <path
         style="color:#000000;fill:#1a1a1a;fill-opacity:1;fill-rule:nonzero;stroke:none;stroke-width:22.60000038;marker:none;visibility:visible;display:inline;overflow:visible;enable-background:accumulate"
         d="m 1423.7287,-1367.0669 c -223.8882,0 -218.1856,238.1299 -415.169,243.0944 l -147.9841,0 -26.9062,0 -72.89704,0 -299.40971,0 -51.30951,0 -3.44149,0 c -83.19648,0 -150.17415,66.9777 -150.17415,150.17418 l 0,965.49466 c 0,83.19648 66.97767,150.17415 150.17415,150.17415 l 1747.65165,0 c 83.1965,0 150.1742,-66.97767 150.1742,-150.17415 l 0,-965.49466 c 0,-83.19648 -66.9777,-150.17418 -150.1742,-150.17418 l -170.5102,0 c -196.9835,-4.9645 -191.2807,-243.0944 -415.1689,-243.0944 l -144.8555,0 z m -891.3462,154.5543 c -39.29917,0 -71.01985,30.2859 -71.01985,68.204 l 299.40971,0 c 0,-37.9181 -31.40792,-68.204 -70.707,-68.204 l -157.68286,0 z"
         id="path3829"
         inkscape:connector-curvature="0" />
      <path
         sodipodi:type="arc"
         style="color:#000000;fill:none;stroke:#ffffff;stroke-width:3.90109897;stroke-linecap:round;stroke-linejoin:round;stroke-miterlimit:4;stroke-opacity:1;stroke-dasharray:none;marker:none;visibility:visible;display:inline;overflow:visible;enable-background:accumulate"
         id="path3772"
         sodipodi:cx="350.01785"
         sodipodi:cy="428.59299"
         sodipodi:rx="35.860416"
         sodipodi:ry="35.860416"
         d="m 385.87827,428.59299 c 0,19.80516 -16.05526,35.86041 -35.86042,35.86041 -19.80516,0 -35.86041,-16.05525 -35.86041,-35.86041 0,-19.80516 16.05525,-35.86042 35.86041,-35.86042 19.80516,0 35.86042,16.05526 35.86042,35.86042 z"
         transform="matrix(12.831782,0,0,12.831782,-2995.2375,-5982.9266)" />
      <path
         sodipodi:type="arc"
         style="color:#000000;fill:#ffffff;fill-opacity:1;stroke:none;stroke-width:5;marker:none;visibility:visible;display:inline;overflow:visible;enable-background:accumulate"
         id="path3775"
         sodipodi:cx="355.82623"
         sodipodi:cy="393.49017"
         sodipodi:rx="4.2931485"
         sodipodi:ry="4.2931485"
         d="m 360.11938,393.49017 c 0,2.37104 -1.92211,4.29315 -4.29315,4.29315 -2.37104,0 -4.29315,-1.92211 -4.29315,-4.29315 0,-2.37104 1.92211,-4.29315 4.29315,-4.29315 2.37104,0 4.29315,1.92211 4.29315,4.29315 z"
         transform="matrix(22.957436,0,0,22.957436,-6952.4397,-9762.3031)" />
      <path
         style="color:#000000;fill:#ffffff;fill-opacity:1;fill-rule:nonzero;stroke:none;stroke-width:3.90109897;marker:none;visibility:visible;display:inline;overflow:visible;enable-background:accumulate"
         d="m 1902.3325,-543.0625 c -22.7075,246.97851 -219.1575,443.17483 -466.1656,465.85273 10.7548,0.79292 21.5791,1.25145 32.5377,1.25145 240.609,0 435.1922,-194.27049 435.1922,-434.87931 0,-10.80534 -0.7929,-21.61908 -1.5643,-32.22487 z"
         id="path3784"
         inkscape:connector-curvature="0" />
      <path
         transform="matrix(8.8047457,0,0,8.8047457,-1734.5927,-4029.7718)"
         d="m 360.11938,393.49017 c 0,2.37104 -1.92211,4.29315 -4.29315,4.29315 -2.37104,0 -4.29315,-1.92211 -4.29315,-4.29315 0,-2.37104 1.92211,-4.29315 4.29315,-4.29315 2.37104,0 4.29315,1.92211 4.29315,4.29315 z"
         sodipodi:ry="4.2931485"
         sodipodi:rx="4.2931485"
         sodipodi:cy="393.49017"
         sodipodi:cx="355.82623"
         id="path3792"
         style="color:#000000;fill:#ffffff;fill-opacity:1;stroke:none;stroke-width:5;marker:none;visibility:visible;display:inline;overflow:visible;enable-background:accumulate"
         sodipodi:type="arc" />
      <rect
         style="color:#000000;fill:#ffffff;fill-opacity:1;fill-rule:nonzero;stroke:none;stroke-width:5;marker:none;visibility:visible;display:inline;overflow:visible;enable-background:accumulate"
         id="rect3797"
         width="258.54865"
         height="144.11386"
         x="1366.8821"
         y="-1317.5764"
         ry="72.056931" />
    </g>
  </g>
</svg>
